<?xml version="1.0" standalone="no"?>
<!DOCTYPE svg PUBLIC "-//W3C//DTD SVG 20010904//EN"
 "http://www.w3.org/TR/2001/REC-SVG-20010904/DTD/svg10.dtd">
<svg version="1.0" xmlns="http://www.w3.org/2000/svg"
 width="280.000000pt" height="281.000000pt" viewBox="0 0 280.000000 281.000000"
 preserveAspectRatio="xMidYMid meet">

<g transform="translate(0.000000,281.000000) scale(0.100000,-0.100000)"
fill="#000000" stroke="none">
<path d="M780 1930 l0 -375 90 -90 90 -90 0 250 0 250 320 -320 320 -320 0
125 0 125 -410 410 -410 410 0 -375z"/>
<path d="M1717 2062 l-237 -237 62 -63 63 -62 87 87 88 88 0 -410 0 -410 85
-85 c46 -46 87 -82 90 -79 3 3 4 322 3 707 l-3 702 -238 -238z"/>
<path d="M1126 1339 l2 -121 196 -197 196 -196 -68 -68 -68 -67 -294 295
c-162 162 -298 295 -302 295 -5 0 -8 -55 -8 -122 l0 -122 297 -298 c164 -164
301 -297 305 -296 3 2 93 88 198 192 l192 189 -318 318 c-176 176 -321 319
-324 319 -3 0 -4 -55 -4 -121z"/>
</g>
</svg>
